<svg width="1280" height="1053" viewBox="0 0 1280 1453" fill="none" xmlns="http://www.w3.org/2000/svg">
<g clip-path="url(#clip0_1354_9636)">
<path d="M860 232.744C860 332.204 823.858 436.27 752.466 542.288C717.514 594.187 677.461 642.4 638.726 689.025C608.751 725.112 577.755 762.421 549.353 801.172C470.142 909.241 427.825 1009.98 419.979 1109.15C409.408 1242.58 482.412 1368.04 532.929 1489.33C576.144 1593.08 641.545 1678.48 648.767 1792.61C659.836 1966.82 542.159 2151.01 466.197 2286.82C453.86 2308.88 441.032 2331.24 428.626 2352.87C360.905 2470.95 290.882 2593.04 261.665 2731.27C228.305 2889.06 263.059 3091.48 393.986 3173.1L391.701 3178C258.621 3095.04 223.196 2889.83 256.987 2729.94C286.405 2590.77 356.667 2468.27 424.612 2349.8C437.01 2328.17 449.831 2305.82 462.152 2283.79C537.682 2148.76 654.875 1965.64 643.965 1793.01C636.809 1679.95 571.609 1595.03 528.591 1491.75C477.785 1369.78 404.52 1243.68 415.183 1108.64C423.122 1008.3 465.806 906.543 545.68 797.572C574.178 758.691 605.228 721.315 635.255 685.17C673.903 638.649 713.867 590.539 748.667 538.862C822.153 429.739 857.912 322.801 855.019 221.227C851.971 115.056 792.182 -10.3104 687.375 -33.5295L688.283 -39C795.542 -15.2358 856.722 112.719 859.83 221.043C859.943 224.935 860 228.84 860 232.744Z" fill="#FF6AA3"/>
<path d="M1025.25 274.862C1015.34 373.652 969.004 472.208 887.393 568.013C847.438 614.913 802.774 657.472 759.581 698.629C726.155 730.484 691.591 763.418 659.464 798.128C569.868 894.93 517.716 989.365 500.026 1086.82C476.21 1217.94 536.357 1352.28 574.542 1479.47C607.209 1588.27 663.782 1681.8 659.597 1796.12C653.252 1970.63 517.789 2137.92 428.661 2262.71C414.186 2282.98 399.19 2303.48 384.689 2323.32C305.53 2431.59 223.678 2543.54 180.828 2676.95C131.906 2829.24 146.319 3034.93 268.479 3133.41L265.716 3137.98C141.547 3037.87 126.745 2829.33 176.305 2675.01C219.45 2540.69 301.579 2428.36 381.002 2319.73C395.494 2299.9 410.481 2279.4 424.937 2259.17C513.557 2135.1 648.431 1968.8 654.778 1795.88C658.924 1682.62 602.501 1589.61 569.984 1481.3C531.579 1353.39 471.235 1218.39 495.304 1085.67C513.204 987.064 565.821 891.674 656.168 794.064C688.403 759.237 723.027 726.244 756.511 694.338C799.607 653.272 844.172 610.804 883.953 564.105C967.958 465.495 1014.2 364.035 1021.44 262.759C1028.99 156.898 981.985 24.4199 880 -12.5882L881.449 -17.9011C985.819 19.9747 1033.95 155.209 1026.25 263.217C1025.97 267.098 1025.64 270.984 1025.25 274.862Z" fill="#FF6AA3"/>
<path d="M682.223 205.959C696.131 304.105 674.95 413.544 619.192 531.491C591.893 589.231 559.036 644.285 527.26 697.526C502.671 738.733 477.243 781.336 454.581 824.878C391.38 946.309 363.629 1053.62 369.74 1152.94C377.945 1286.58 467.667 1396.76 534.572 1507.02C591.805 1601.33 668.407 1673.39 691.505 1784.66C726.81 1954.5 636.223 2158.23 580.112 2306.43C570.999 2330.5 561.443 2354.96 552.203 2378.62C501.761 2507.78 449.604 2641.34 440.047 2783.19C429.129 2945.12 491.795 3138.39 632.651 3194.48L631.077 3199.75C487.904 3142.73 424.186 2946.84 435.236 2782.76C444.861 2639.93 497.195 2505.93 547.805 2376.34C557.039 2352.69 566.589 2328.23 575.69 2304.2C631.482 2156.85 721.74 1954.26 686.814 1785.95C663.929 1675.72 587.594 1604.1 530.621 1510.21C463.335 1399.34 373.267 1288.58 364.926 1153.33C358.744 1052.84 386.716 944.456 450.446 822.012C473.185 778.323 498.657 735.644 523.289 694.37C554.994 641.247 587.777 586.312 614.957 528.82C672.351 407.418 692.751 295.217 675.688 195.524C657.828 91.3246 581.186 -21.223 474.32 -24.5676L474.453 -30.1353C583.819 -26.7107 662.198 88.1313 680.418 194.444C681.074 198.264 681.677 202.106 682.223 205.959Z" fill="#FF6AA3"/>
<path d="M370 232.744C370 332.204 406.259 436.27 477.884 542.288C512.95 594.187 553.133 642.4 591.994 689.025C622.066 725.112 653.163 762.421 681.658 801.172C761.126 909.241 803.581 1009.98 811.452 1109.15C822.058 1242.58 748.816 1368.04 698.135 1489.33C654.779 1593.08 589.165 1678.48 581.92 1792.61C570.815 1966.82 688.874 2151.01 765.083 2286.82C777.461 2308.88 790.331 2331.24 802.777 2352.87C870.718 2470.95 940.969 2593.04 970.281 2731.27C1003.75 2889.06 968.882 3091.48 837.529 3173.1L839.822 3178C973.335 3095.04 1008.87 2889.83 974.974 2729.94C945.46 2590.77 874.97 2468.27 806.804 2349.8C794.366 2328.17 781.502 2305.82 769.142 2283.79C693.366 2148.76 575.792 1965.64 586.737 1793.01C593.917 1679.95 659.329 1595.03 702.487 1491.75C753.458 1369.78 826.962 1243.68 816.264 1108.64C808.299 1008.3 765.476 906.543 685.343 797.572C656.751 758.691 625.6 721.315 595.476 685.17C556.702 638.649 516.609 590.539 481.696 538.862C407.97 429.739 372.095 322.801 374.997 221.227C378.056 115.056 438.039 -10.3104 543.186 -33.5295L542.275 -39C434.668 -15.2358 373.289 112.719 370.171 221.043C370.057 224.935 370 228.84 370 232.744Z" fill="#FF6AA3"/>
<path d="M538.905 209.834C528.994 308.625 554.59 416.799 615.071 531.602C644.682 587.803 679.736 641.021 713.637 692.486C739.871 732.318 766.999 773.5 791.402 815.769C859.459 933.65 891.532 1039.35 889.457 1138.89C886.681 1272.82 801.527 1387.73 739.168 1501.48C685.823 1598.79 612.228 1674.91 593.669 1787.3C565.292 1958.87 664.043 2157.48 726.104 2302.48C736.183 2326.03 746.721 2349.95 756.91 2373.09C812.537 2499.38 870.054 2629.97 885.354 2771.15C902.829 2932.31 848.07 3128.76 709.644 3192.4L711.43 3197.57C852.133 3132.88 907.835 2933.76 890.142 2770.45C874.735 2628.31 817.022 2497.28 761.211 2370.56C751.028 2347.44 740.497 2323.53 730.431 2300.01C668.723 2155.84 570.347 1958.36 598.407 1788.34C616.796 1676.99 690.142 1601.33 743.244 1504.46C805.959 1390.07 891.436 1274.57 894.281 1139.02C896.381 1038.3 864.044 931.548 795.416 812.683C770.93 770.271 743.755 729.016 717.476 689.118C683.651 637.768 648.675 584.665 619.194 528.706C556.938 410.539 532.009 299.563 545.01 199.057C558.624 94.0071 630.617 -22.56 737.229 -31.6775L736.871 -37.232C627.764 -27.8993 554.128 91.0536 540.241 198.235C539.74 202.086 539.294 205.956 538.905 209.834Z" fill="#FF6AA3"/>
<path d="M199.047 297.205C212.955 395.351 263.239 491.294 348.647 582.582C390.46 627.271 436.801 667.368 481.617 706.146C516.298 736.159 552.16 767.189 585.659 800.124C679.084 891.977 735.009 983.489 756.632 1079.88C785.741 1209.57 731.109 1347.01 698.125 1476.13C669.908 1586.58 617.19 1683.06 626.008 1797.02C639.424 1971 781.524 2130.79 875.616 2250.62C890.898 2270.09 906.708 2289.76 921.998 2308.79C1005.46 2412.66 1091.76 2520.07 1139.98 2651.01C1195.03 2800.49 1188.97 3006.73 1070.94 3111.71L1073.89 3116.12C1193.86 3009.41 1200.18 2800.3 1144.42 2648.83C1095.87 2516.99 1009.28 2409.22 925.536 2305C910.255 2285.98 894.453 2266.32 879.192 2246.88C785.637 2127.74 644.165 1968.91 630.811 1796.52C622.076 1683.62 674.664 1587.66 702.752 1477.71C735.926 1347.86 790.728 1209.75 761.303 1078.48C739.423 980.947 682.994 888.506 588.787 795.887C555.174 762.84 519.25 731.755 484.509 701.693C439.794 663.002 393.556 622.99 351.924 578.493C264.012 484.532 213.704 385.682 202.36 284.91C190.528 179.572 232.109 44.6986 332.481 2.21824L330.818 -3.01048C228.099 40.4655 185.504 178.153 197.579 285.626C198.011 289.489 198.501 293.352 199.047 297.205Z" fill="#FF6AA3"/>
<path d="M674.27 2487.8C674.27 2518.26 672.306 2548.93 667.995 2579.65C656.005 2665.08 626.485 2746.49 597.937 2825.22C592.765 2839.49 587.596 2853.75 582.53 2868.02C549.624 2960.73 519.676 3060.42 523.354 3161.45C527.413 3272.72 576.793 3369.87 649.158 3408.95L647.116 3414C573.145 3374.04 522.673 3275 518.541 3161.69C514.827 3059.65 544.953 2959.21 578.073 2865.91C583.142 2851.62 588.316 2837.35 593.496 2823.08C621.933 2744.64 651.339 2663.53 663.238 2578.76C693.688 2361.85 785.819 2145.79 717.121 2002.16C696.543 1959.13 674.54 1915.83 653.263 1873.95C586.726 1742.99 517.924 1607.58 481.762 1459.52C424.563 1225.34 275.096 960.923 383.334 752.229C410.93 699.024 443.653 648.584 475.298 599.814C498.227 564.468 521.937 527.926 543.495 490.64C605.832 382.802 636.962 286.41 638.667 195.966C640.85 81.6264 588.275 -25.1076 510.891 -63.8893L512.805 -69C591.942 -29.3423 645.568 79.7837 643.485 196.086C641.758 287.628 610.362 384.989 547.499 493.728C525.87 531.145 502.12 567.753 479.151 603.153C447.581 651.815 414.933 702.134 387.465 755.09C279.9 962.5 429.552 1225.27 486.396 1458.01C522.393 1605.38 591.035 1740.47 657.417 1871.13C678.709 1913.04 700.728 1956.37 721.336 1999.46C780.681 2123.54 674.264 2301.45 674.27 2487.8Z" fill="#FFC849"/>
<path d="M614.688 2490.02C611.652 2520.29 606.642 2550.5 599.292 2580.44C578.851 2663.71 541.374 2740.67 505.13 2815.09C498.564 2828.57 492 2842.05 485.539 2855.55C443.568 2943.28 403.843 3038.33 397.432 3139.19C390.379 3250.27 429.813 3353.35 497.897 3401.8L495.363 3406.54C425.768 3357.01 385.437 3251.91 392.62 3138.79C399.097 3036.92 439.074 2941.14 481.317 2852.86C487.783 2839.34 494.352 2825.86 500.927 2812.36C537.031 2738.22 574.364 2661.56 594.649 2578.92C646.557 2367.48 759.732 2165.09 705.716 2013.27C689.537 1967.78 671.967 1921.84 654.977 1877.4C601.847 1738.46 546.908 1594.78 525.696 1442.89C492.142 1202.63 369.826 920.075 498.288 727.145C531.04 677.958 568.617 632.201 604.954 587.96C631.285 555.895 658.51 522.746 683.67 488.571C756.423 389.731 796.995 298.111 807.706 208.487C821.273 95.1872 779.616 -17.8391 706.51 -66.6581L708.923 -71.4806C783.686 -21.5584 826.15 93.9841 812.486 209.247C801.644 299.959 760.711 392.506 687.345 492.171C662.101 526.466 634.829 559.676 608.454 591.789C572.202 635.933 534.713 681.58 502.112 730.536C374.447 922.28 497.111 1203.23 530.456 1442C551.573 1593.19 606.384 1736.53 659.389 1875.16C676.391 1919.62 693.974 1965.6 710.178 2011.15C756.839 2142.3 633.257 2304.89 614.688 2490.02Z" fill="#FFC849"/>
<path d="M812.961 2466.23C817.222 2496.29 819.571 2526.93 819.607 2558.05C819.706 2644.6 801.921 2730.46 784.722 2813.5C781.606 2828.54 778.492 2843.58 775.481 2858.61C755.931 2956.25 740.279 3060.24 758.044 3159.26C777.617 3268.32 840.001 3354.99 916.977 3380.06L915.665 3385.42C836.98 3359.79 773.252 3271.46 753.321 3160.4C735.38 3060.38 751.102 2955.62 770.783 2857.36C773.793 2842.31 776.911 2827.27 780.032 2812.21C797.163 2729.48 814.88 2643.95 814.781 2558.06C814.536 2338.3 875.36 2107.86 787.385 1978.92C761.033 1940.29 733.234 1901.66 706.35 1864.3C622.284 1747.46 535.356 1626.66 478.914 1487.28C389.638 1266.82 204.956 1033.75 282.727 807.574C302.556 749.912 327.838 694.023 352.289 639.984C370.004 600.819 388.323 560.329 404.412 519.506C450.93 401.441 468.212 300.496 457.247 210.912C443.413 97.6557 376.53 2.12438 294.637 -21.7108L295.814 -27.1121C379.562 -2.73949 447.818 94.9565 462.025 210.132C473.121 300.803 455.713 402.754 408.8 521.806C392.659 562.772 374.31 603.335 356.563 642.56C332.172 696.479 306.947 752.234 287.21 809.627C209.923 1034.41 394.559 1265.83 483.282 1484.92C539.464 1623.65 626.19 1744.18 710.061 1860.74C736.963 1898.13 764.782 1936.79 791.173 1975.47C867.171 2086.86 786.893 2282.3 812.961 2466.23Z" fill="#FFC849"/>
<path d="M557.901 2487.8C557.901 2518.26 559.87 2548.93 564.191 2579.65C576.212 2665.08 605.806 2746.49 634.426 2825.22C639.611 2839.49 644.793 2853.75 649.872 2868.02C682.861 2960.73 712.884 3060.42 709.197 3161.45C705.127 3272.72 655.623 3369.87 583.076 3408.95L585.123 3414C659.28 3374.04 709.879 3275 714.022 3161.69C717.745 3059.65 687.543 2959.21 654.339 2865.91C649.258 2851.62 644.071 2837.35 638.879 2823.08C610.369 2744.64 580.889 2663.53 568.96 2578.76C538.433 2361.85 446.071 2145.79 514.942 2002.16C535.571 1959.13 557.629 1915.83 578.961 1873.95C645.665 1742.99 714.64 1607.58 750.893 1459.52C808.237 1225.34 958.08 960.923 849.569 752.229C821.904 699.024 789.099 648.584 757.374 599.814C734.387 564.468 710.617 527.926 689.005 490.64C626.511 382.802 595.302 286.41 593.593 195.966C591.405 81.6264 644.113 -25.1076 721.691 -63.8893L719.772 -69C640.436 -29.3423 586.675 79.7837 588.763 196.086C590.494 287.628 621.969 384.989 684.991 493.728C706.674 531.145 730.484 567.753 753.511 603.153C785.16 651.815 817.89 702.134 845.428 755.09C953.264 962.5 803.235 1225.27 746.247 1458.01C710.16 1605.38 641.345 1740.47 574.796 1871.13C553.45 1913.04 531.376 1956.37 510.716 1999.46C451.222 2123.54 557.906 2301.45 557.901 2487.8Z" fill="#FFC849"/>
<path d="M499.993 2474.69C496.957 2504.95 495.853 2535.68 497.079 2566.78C500.491 2653.24 521.739 2738.04 542.288 2820.05C546.01 2834.91 549.73 2849.77 553.348 2864.62C576.837 2961.1 596.689 3064.12 582.961 3164C567.833 3273.99 509.033 3363.94 433.158 3393.15L434.686 3398.43C512.246 3368.57 572.32 3276.89 587.725 3164.87C601.589 3064 581.635 2960.21 557.99 2863.11C554.373 2848.24 550.648 2833.38 546.919 2818.51C526.452 2736.8 505.285 2652.32 501.9 2566.52C493.231 2346.98 423.126 2120.09 505.775 1986.53C530.531 1946.52 556.733 1906.43 582.072 1867.66C661.307 1746.41 743.239 1621.03 793.965 1478.76C874.202 1253.72 1049.23 1010.91 962.367 789.195C940.221 732.668 912.699 678.207 886.084 625.548C866.799 587.384 846.858 547.929 829.131 508.02C777.875 392.599 756.517 292.699 763.836 202.621C773.062 88.7411 835.995 -10.3008 916.833 -38.5367L915.438 -43.8685C832.77 -14.9955 768.552 86.2829 759.032 202.1C751.625 293.271 773.15 394.169 824.841 510.555C842.625 550.603 862.6 590.13 881.918 628.352C908.47 680.894 935.928 735.225 957.973 791.487C1044.29 1011.84 869.246 1252.99 789.506 1476.64C739.013 1618.25 657.271 1743.34 578.22 1864.31C552.864 1903.11 526.644 1943.23 501.851 1983.29C430.455 2098.66 518.572 2289.56 499.993 2474.69Z" fill="#FFC849"/>
<path d="M699.014 2487.74C703.274 2517.81 709.504 2547.72 718.061 2577.23C741.857 2659.3 782.414 2734.15 821.637 2806.53C828.742 2819.64 835.846 2832.75 842.847 2845.89C888.331 2931.25 931.868 3024.05 942.363 3124.45C953.914 3235.03 918.704 3340.13 852.661 3392.21L855.384 3396.81C922.893 3343.57 958.917 3236.4 947.153 3123.79C936.552 3022.39 892.733 2928.88 846.956 2842.97C839.948 2829.82 832.84 2816.7 825.725 2803.58C786.653 2731.47 746.251 2656.91 722.637 2575.46C662.209 2367.06 540.949 2171.01 588.748 2016.43C603.064 1970.12 618.751 1923.28 633.92 1877.97C681.356 1736.31 730.406 1589.82 745.434 1436.95C769.206 1195.14 879.926 906.281 743.779 720.506C709.068 673.144 669.677 629.468 631.585 587.24C603.983 556.633 575.442 524.992 548.924 492.215C472.242 397.416 427.998 308.09 413.663 219.143C395.515 106.701 432.542 -8.45331 503.588 -61.1706L500.981 -65.8573C428.326 -11.9485 390.595 105.763 408.919 220.16C423.428 310.187 468.071 400.42 545.399 496.01C572.006 528.903 600.595 560.601 628.244 591.254C666.247 633.39 705.547 676.96 740.097 724.101C875.4 908.734 764.267 1196.01 740.644 1436.32C725.682 1588.48 676.745 1734.63 629.421 1875.97C614.241 1921.31 598.543 1968.18 584.205 2014.55C542.914 2148.09 672.956 2303.82 699.014 2487.74Z" fill="#FFC849"/>
<path d="M1011 1991.47C1011 2048.1 1001.93 2102.06 983.399 2151.33C933.549 2283.88 823.091 2370.16 721.612 2437.06C706.229 2447.21 690.69 2457.22 675.121 2467.24C584.894 2525.35 491.594 2585.44 424.371 2676.43C312.8 2827.46 290.622 3055.67 370.439 3231.42L366.161 3234C285.451 3056.29 307.884 2825.53 420.693 2672.82C488.482 2581.07 582.165 2520.73 672.765 2462.38C688.32 2452.37 703.844 2442.36 719.216 2432.23C820.002 2365.77 929.681 2280.17 978.971 2149.11C1036.87 1995.16 661.877 1804.27 544.129 1621.51C491.878 1540.42 619.18 1457.05 558.448 1386.24C503.424 1322.09 595.7 1255.75 546.656 1183.61C487.79 1097.01 358.171 871.14 425.845 644.484C449.395 565.601 494.434 497.732 537.989 432.099L543.586 423.656C590.788 352.433 634.725 281.771 653.645 200.484C675.066 108.438 656.373 15.2609 606.007 -36.8564L609.232 -41C660.937 12.5041 680.209 107.845 658.31 201.929C639.161 284.194 594.931 355.352 547.425 427.037L541.825 435.48C498.504 500.76 453.706 568.269 430.41 646.299C363.516 870.335 492.078 1094.29 550.457 1180.17C599.332 1252.07 506.957 1318.29 561.882 1382.33C622.732 1453.27 495.553 1536.78 548.006 1618.2C629.238 1744.27 1010.99 1868.99 1011 1991.47Z" fill="#003F98"/>
<path d="M998.992 2041.54C993.35 2097.8 978.967 2150.21 955.674 2196.69C893.002 2321.76 774.809 2392.82 667.455 2445.83C651.181 2453.87 634.767 2461.75 618.32 2469.65C523.007 2515.41 424.449 2562.72 348.681 2644.21C222.931 2779.45 178.18 3003.22 239.854 3188.41L235.353 3190.41C172.987 3003.15 218.245 2776.88 345.392 2640.13C421.796 2557.97 520.76 2510.45 616.467 2464.5C632.899 2456.62 649.298 2448.74 665.559 2440.72C772.18 2388.06 889.534 2317.57 951.501 2193.9C1024.29 2048.64 671.261 1809.24 572.65 1612.06C528.892 1524.57 663.506 1458.64 610.307 1380.23C562.109 1309.2 660.274 1255.54 618.806 1177.35C569.031 1083.52 462.941 841.924 552.677 625.726C583.905 550.482 635.356 489.032 685.112 429.606L691.507 421.96C745.439 357.464 796.075 293.092 822.95 214.846C853.378 126.243 844.118 31.1946 799.34 -27.2638L802.954 -30.9524C848.921 29.0613 858.539 126.336 827.433 216.901C800.235 296.088 749.259 360.913 694.98 425.828L688.582 433.473C639.093 492.58 587.917 553.705 557.026 628.135C468.324 841.834 573.558 1081.38 622.92 1174.44C664.246 1252.36 565.993 1305.89 614.105 1376.8C667.407 1455.35 532.9 1521.44 576.827 1609.28C644.857 1745.32 1011.19 1919.86 998.992 2041.54Z" fill="#003F98"/>
<path d="M1076.15 1913.38C1084.08 1969.27 1082.68 2024.22 1071.3 2076.29C1040.7 2216.4 943.893 2322.11 853.222 2407.04C839.478 2419.91 825.562 2432.69 811.617 2445.48C730.807 2519.63 647.246 2596.3 593.71 2698.63C504.857 2868.45 514.914 3097.83 618.17 3256.43L614.315 3259.77C509.903 3099.4 499.741 2867.46 589.579 2695.75C643.566 2592.57 727.471 2515.57 808.616 2441.12C822.547 2428.34 836.45 2415.58 850.186 2402.72C940.235 2318.36 1036.37 2213.46 1066.63 2074.93C1102.17 1912.2 705.837 1793.59 564.212 1635.14C501.366 1564.82 615.189 1458.85 545.421 1400.26C482.212 1347.18 563.891 1264.54 505.457 1202.46C435.321 1127.95 275.965 929.141 310.97 692.836C323.151 610.595 358.054 535.226 391.806 462.339L396.143 452.964C432.709 373.881 466.134 295.959 473.415 212.208C481.656 117.372 450.198 28.8869 393.263 -13.1768L395.863 -17.8669C454.311 25.3166 486.643 115.829 478.215 212.767C470.846 297.526 437.201 375.99 400.4 455.586L396.061 464.962C362.489 537.456 327.774 612.427 315.724 693.777C281.121 927.351 439.168 1124.46 508.724 1198.36C566.955 1260.22 485.163 1342.78 548.259 1395.76C618.162 1454.45 504.48 1560.55 567.57 1631.14C665.274 1740.46 1059.02 1792.49 1076.15 1913.38Z" fill="#003F98"/>
<path d="M221 1991.47C220.997 2048.1 230.073 2102.06 248.601 2151.33C298.451 2283.88 408.909 2370.16 510.388 2437.06C525.771 2447.21 541.31 2457.22 556.879 2467.24C647.106 2525.35 740.406 2585.44 807.629 2676.43C919.2 2827.46 941.378 3055.67 861.561 3231.42L865.839 3234C946.549 3056.29 924.116 2825.53 811.307 2672.82C743.518 2581.07 649.835 2520.73 559.235 2462.38C543.68 2452.37 528.156 2442.36 512.784 2432.23C411.998 2365.77 302.319 2280.17 253.029 2149.11C195.133 1995.16 570.123 1804.27 687.871 1621.51C740.122 1540.42 612.82 1457.05 673.552 1386.24C728.576 1322.09 636.3 1255.75 685.344 1183.61C744.21 1097.01 873.829 871.14 806.155 644.484C782.605 565.601 737.566 497.732 694.011 432.099L688.414 423.656C641.212 352.433 597.275 281.771 578.355 200.484C556.934 108.438 575.627 15.2609 625.993 -36.8564L622.768 -41C571.063 12.5041 551.791 107.845 573.69 201.929C592.839 284.194 637.069 355.352 684.575 427.037L690.175 435.48C733.496 500.76 778.294 568.269 801.59 646.299C868.484 870.335 739.922 1094.29 681.543 1180.17C632.668 1252.07 725.043 1318.29 670.118 1382.33C609.268 1453.27 736.447 1536.78 683.994 1618.2C602.762 1744.27 221.006 1868.99 221 1991.47Z" fill="#003F98"/>
<path d="M214.664 1936.67C209.017 1992.93 212.644 2047.75 226.116 2099.15C262.364 2237.44 363.358 2337.81 457.374 2417.74C471.625 2429.86 486.044 2441.87 500.493 2453.89C584.222 2523.59 670.802 2595.66 728.429 2694.98C824.073 2859.82 823.331 3089.48 726.621 3253.5L730.608 3256.63C828.4 3090.79 829.143 2858.56 732.438 2691.88C674.326 2591.73 587.389 2519.36 503.314 2449.38C488.879 2437.36 474.474 2425.36 460.232 2413.26C366.859 2333.87 266.571 2234.27 230.731 2097.53C188.633 1936.9 579.715 1797 714.757 1631.06C774.682 1557.43 656.686 1457.72 724 1395.43C784.988 1339 700.046 1260.85 755.897 1195.68C822.934 1117.47 974.052 910.263 929.499 676.109C913.996 594.617 876.075 521.217 839.403 450.235L834.691 441.105C794.957 364.085 758.407 288.056 747.737 204.789C735.658 110.503 763.493 20.4147 818.66 -24.6807L815.873 -29.2251C759.24 17.0705 730.615 109.232 742.965 205.607C753.764 289.875 790.555 366.435 830.544 443.954L835.259 453.085C871.735 523.685 909.453 596.697 924.789 677.307C968.829 908.754 818.95 1114.19 752.468 1191.77C696.81 1256.71 781.861 1334.75 720.983 1391.09C653.538 1453.5 771.398 1553.33 711.241 1627.26C618.078 1741.73 226.878 1814.99 214.664 1936.67Z" fill="#003F98"/>
<path d="M296.939 2060.53C304.857 2116.42 321.35 2167.99 346.503 2213.17C414.179 2334.71 535.125 2399.31 644.511 2446.45C661.093 2453.6 677.809 2460.59 694.558 2467.58C791.623 2508.14 891.992 2550.08 970.982 2627.38C1102.08 2755.67 1155.86 2976.79 1101.76 3165.1L1106.34 3166.86C1161.04 2976.44 1106.66 2752.85 974.102 2623.13C894.449 2545.19 793.666 2503.07 696.2 2462.35C679.467 2455.36 662.765 2448.38 646.197 2441.24C537.557 2394.41 417.473 2330.33 350.558 2210.15C271.957 2068.98 614.888 1810.77 705.392 1608.47C745.554 1518.71 608.412 1460.13 658.373 1378.93C703.637 1305.37 603.403 1257.07 641.655 1176.74C687.569 1080.31 783.743 833.249 685.336 622.139C651.089 548.666 597.202 490.064 545.091 433.392L538.392 426.101C481.903 364.591 428.712 303.026 398.693 226.319C364.705 139.458 370.099 44.0135 412.456 -16.8013L408.697 -20.2905C365.215 42.1421 359.552 139.83 394.298 228.614C424.678 306.244 478.228 368.243 535.081 430.152L541.782 437.443C593.614 493.81 647.213 552.102 681.089 624.78C778.361 833.45 682.96 1078.42 637.427 1174.05C599.307 1254.11 699.623 1302.28 654.44 1375.71C604.382 1457.06 741.423 1515.8 701.107 1605.92C638.67 1745.48 279.814 1939.64 296.939 2060.53Z" fill="#003F98"/>
<path d="M605.479 1587.95C605.488 1840.3 767.409 2057.29 645.249 2200.19C623.784 2225.3 601.501 2250.73 579.953 2275.31C450.794 2422.69 317.239 2575.08 257.483 2772.35C188.51 3000.04 233.047 3264.21 370.968 3445.32L367.35 3449C299.598 3360.03 252.952 3248.77 232.462 3127.25C211.97 3005.75 219.05 2882.37 252.937 2770.51C313.063 2572.02 447.02 2419.17 576.569 2271.35C598.108 2246.77 620.38 2221.36 641.825 2196.28C767.342 2049.44 606.108 1762.02 595.151 1501.29C589.561 1368.07 786.583 1294.09 684.319 1135.27C656.693 1092.37 706.638 1049.99 677.958 1009.01C621.916 928.928 563.968 846.115 518.485 755.564C472.044 663.099 401.182 480.932 448.495 299.695C476.705 191.619 543.134 100.965 601.743 20.9788L713.847 -132L717.522 -128.4L605.416 24.5799C547.113 104.152 481.025 194.338 453.104 301.305C406.32 480.525 476.599 661.083 522.651 752.77C567.947 842.951 625.778 925.59 681.702 1005.51C710.412 1046.54 660.5 1088.95 688.179 1131.94C791.044 1291.69 594.324 1366.65 599.962 1501.02C600.31 1509.35 605.479 1579.69 605.479 1587.95Z" fill="#8378FF"/>
<path d="M637.249 1587.09C612.109 1837.76 751.521 2074.84 615.785 2200.55C591.935 2222.64 567.24 2244.93 543.358 2266.49C400.216 2395.71 252.202 2529.33 173.112 2717.33C81.8223 2934.34 99.7892 3202.68 218.907 3400.93L214.943 3404.1C156.428 3306.71 121.124 3189.99 112.857 3066.55C104.586 2943.13 123.923 2821.52 168.774 2714.9C248.353 2525.73 396.813 2391.71 540.388 2262.1C564.259 2240.55 588.942 2218.27 612.771 2196.2C752.237 2067.04 620.526 1760.09 635.614 1499.63C643.332 1366.56 846.652 1319.27 760.774 1147.91C737.575 1101.62 791.47 1066.17 767.032 1021.64C719.276 934.639 669.897 844.671 633.687 748.674C596.715 650.649 544.394 460.27 609.512 286.53C648.339 182.924 723.44 101.706 789.701 30.0462L916.44 -107.008L919.736 -102.943L792.995 34.1118C727.08 105.401 652.365 186.2 613.935 288.742C549.544 460.549 601.446 649.251 638.109 746.452C674.17 842.057 723.449 931.836 771.104 1018.66C795.568 1063.23 741.701 1098.73 764.945 1145.11C851.328 1317.48 648.21 1365.78 640.426 1500C639.942 1508.33 638.072 1578.89 637.249 1587.09Z" fill="#8378FF"/>
<path d="M620.415 1590.69C655.714 1839.73 846.047 2023.65 745.33 2187.47C727.632 2216.26 709.172 2245.51 691.318 2273.8C584.311 2443.33 473.662 2618.64 442.206 2824.47C405.899 3062.05 486.848 3314.44 648.449 3467.44L645.389 3471.74C566.004 3396.58 504.356 3295.49 467.116 3179.39C429.877 3063.3 419.619 2940.23 437.457 2823.51C469.108 2616.41 580.09 2440.57 687.421 2270.52C705.266 2242.24 723.719 2213.01 741.399 2184.25C844.884 2015.92 645.38 1762.36 598.092 1507.1C573.939 1376.67 758.262 1266.9 635.009 1129.25C601.714 1092.06 645.136 1040.92 611.068 1005.83C544.495 937.255 475.658 866.342 418.054 785.466C359.238 702.881 263.746 536.327 285.149 348.641C297.909 236.72 350.867 134.861 397.59 44.9897L486.963 -126.898L491.097 -124.031L401.723 47.8582C355.244 137.264 302.558 238.598 289.928 349.37C268.766 534.967 363.456 700.041 421.781 781.931C479.147 862.476 547.844 933.24 614.277 1001.68C648.381 1036.81 604.998 1087.98 638.358 1125.24C762.335 1263.7 578.445 1374.38 602.807 1505.93C604.316 1514.09 619.26 1582.54 620.415 1590.69Z" fill="#8378FF"/>
<path d="M625.748 1587.95C625.738 1840.3 463.492 2057.29 585.897 2200.19C607.406 2225.3 629.733 2250.73 651.325 2275.31C780.744 2422.69 914.567 2575.08 974.444 2772.35C1043.56 3000.04 998.928 3264.21 860.73 3445.32L864.355 3449C932.243 3360.03 978.983 3248.77 999.514 3127.25C1020.05 3005.75 1012.95 2882.37 978.999 2770.51C918.752 2572.02 784.525 2419.17 654.716 2271.35C633.133 2246.77 610.816 2221.36 589.328 2196.28C463.558 2049.44 625.117 1762.02 636.096 1501.29C641.697 1368.07 444.279 1294.09 546.749 1135.27C574.43 1092.37 524.385 1049.99 553.122 1009.01C609.277 928.928 667.342 846.115 712.917 755.564C759.451 663.099 830.456 480.932 783.047 299.695C754.78 191.619 688.218 100.965 629.491 20.9788L517.161 -132L513.479 -128.4L625.811 24.5799C684.231 104.152 750.452 194.338 778.429 301.305C825.308 480.525 754.887 661.083 708.742 752.77C663.355 842.951 605.408 925.59 549.371 1005.51C520.604 1046.54 570.616 1088.95 542.881 1131.94C439.809 1291.69 636.925 1366.65 631.275 1501.02C630.927 1509.35 625.748 1579.69 625.748 1587.95Z" fill="#8378FF"/>
<path d="M656.814 1589.71C631.655 1840.38 448.992 2034.39 556.243 2192.59C575.089 2220.38 594.716 2248.6 613.696 2275.89C727.463 2439.46 845.102 2608.6 884.872 2812.5C930.776 3047.85 860.154 3304.34 704.936 3465.91L708.167 3470.04C784.416 3390.68 841.896 3286.36 874.385 3168.37C906.876 3050.4 912.13 2926.91 889.577 2811.28C849.56 2606.12 731.567 2436.47 617.457 2272.41C598.484 2245.13 578.866 2216.93 560.038 2189.15C449.84 2026.6 638.84 1762.54 675.722 1505C694.558 1373.41 505.984 1273.72 623.519 1129.56C655.269 1090.61 609.821 1041.88 642.428 1004.98C706.146 932.883 772.031 858.327 826.291 774.426C881.693 688.752 970.324 517.219 941.331 330.896C924.046 219.788 867.015 120.903 816.697 33.6557L720.45 -133.213L716.437 -130.125L812.685 36.7445C862.74 123.54 919.479 221.915 936.587 331.882C965.255 516.131 877.364 686.143 822.425 771.096C768.389 854.654 702.638 929.054 639.053 1001.01C606.412 1037.94 651.823 1086.71 620.011 1125.74C501.786 1270.74 689.964 1371.36 670.964 1504.09C669.788 1512.32 657.637 1581.5 656.814 1589.71Z" fill="#8378FF"/>
<path d="M639.853 1587.02C675.133 1836.06 545.491 2080.41 686.177 2198.64C710.897 2219.42 736.469 2240.35 761.199 2260.6C909.425 2381.94 1062.7 2507.41 1149.33 2690.94C1249.32 2902.77 1242.26 3171.78 1131.31 3376.25L1135.4 3379.21C1189.9 3278.76 1220.43 3160.26 1223.68 3036.51C1226.94 2912.78 1202.69 2792.35 1153.56 2688.27C1066.4 2503.61 912.662 2377.76 763.988 2256.06C739.269 2235.82 713.709 2214.9 689.012 2194.14C544.459 2072.65 663.575 1758.93 637.939 1499.57C624.832 1367.06 419.816 1330.81 498.65 1155C519.945 1107.5 464.672 1075 487.277 1029.21C531.451 939.718 577.127 847.18 609.404 749.331C642.359 649.414 686.9 456.416 614.806 286.387C571.819 184.993 493.506 107.924 424.411 39.9245L292.252 -90.1282L289.124 -85.8897L421.286 44.1636C490.02 111.812 567.931 188.483 610.478 288.835C681.767 456.973 637.576 648.274 604.896 747.35C572.752 844.799 527.169 937.144 483.089 1026.45C460.459 1072.29 515.707 1104.84 494.37 1152.43C415.073 1329.28 619.927 1366.54 633.147 1500.2C633.968 1508.49 638.698 1578.87 639.853 1587.02Z" fill="#8378FF"/>
</g>
<defs>
<clipPath id="clip0_1354_9636">
<rect width="1280" height="1453" fill="white"/>
</clipPath>
</defs>
</svg>
